<?xml version="1.0" encoding="UTF-8"?>
<!DOCTYPE svg PUBLIC "-//W3C//DTD SVG 1.1//EN" "http://www.w3.org/Graphics/SVG/1.1/DTD/svg11.dtd">
<svg version="1.1" xmlns="http://www.w3.org/2000/svg" xmlns:xlink="http://www.w3.org/1999/xlink" x="0" y="0" width="100" height="100" viewBox="0, 0, 100, 100">
  <defs>
    <linearGradient id="Gradient_1" gradientUnits="userSpaceOnUse" x1="0" y1="0" x2="100" y2="100">
      <stop offset="0" stop-color="#E6A23C"/>
      <stop offset="1" stop-color="#F5D393"/>
    </linearGradient>
    <radialGradient id="Gradient_2" cx="50" cy="50" r="40" gradientUnits="userSpaceOnUse">
      <stop offset="0" stop-color="#1A1A1A"/>
      <stop offset="1" stop-color="#000000"/>
    </radialGradient>
  </defs>
  <g id="Layer_1">
    <circle cx="50" cy="50" r="45" fill="url(#Gradient_2)"/>
    <path d="M50,25 C40,25 30,30 25,40 C20,50 25,60 35,65 C40,67.5 45,70 50,70 C55,70 60,67.5 65,65 C75,60 80,50 75,40 C70,30 60,25 50,25 z" fill="none" stroke="url(#Gradient_1)" stroke-width="3"/>
    <path d="M50,35 C45,35 40,37.5 37.5,40 C35,42.5 35,47.5 40,50 C42.5,51.25 45,52.5 50,52.5 C55,52.5 57.5,51.25 60,50 C65,47.5 65,42.5 62.5,40 C60,37.5 55,35 50,35 z" fill="none" stroke="url(#Gradient_1)" stroke-width="2"/>
    <circle cx="50" cy="42.5" r="5" fill="url(#Gradient_1)"/>
    <path d="M62.5,40 C65,42.5 70,45 75,47.5 C80,50 85,52.5 85,52.5" fill="none" stroke="url(#Gradient_1)" stroke-width="2.5"/>
    <path d="M37.5,40 C35,42.5 30,45 25,47.5 C20,50 15,52.5 15,52.5" fill="none" stroke="url(#Gradient_1)" stroke-width="2.5"/>
    <path d="M40,50 C40,50 35,60 30,70 C27.5,75 25,80 25,80" fill="none" stroke="url(#Gradient_1)" stroke-width="2.5"/>
    <path d="M60,50 C60,50 65,60 70,70 C72.5,75 75,80 75,80" fill="none" stroke="url(#Gradient_1)" stroke-width="2.5"/>
  </g>
</svg>
